<svg xmlns="http://www.w3.org/2000/svg" enable-background="new 0 0 70 70" viewBox="0 0 70 70" id="cross"><path d="M35,68c18.1962891,0,33-14.8037109,33-33S53.1962891,2,35,2S2,16.8037109,2,35S16.8037109,68,35,68z M35,4
	c17.09375,0,31,13.90625,31,31S52.09375,66,35,66S4,52.09375,4,35S17.90625,4,35,4z"></path><path d="M19.8105469,46.640625c0,0.9472656,0.3691406,1.8388672,1.0400391,2.5087891
	c1.3398438,1.3427734,3.6787109,1.3408203,5.0185547,0L35,40.0185547l9.1308594,9.1308594
	c0.6708984,0.6708984,1.5615234,1.0400391,2.5097656,1.0400391s1.8388672-0.3691406,2.5097656-1.0400391
	c1.3837891-1.3837891,1.3837891-3.6347656,0-5.0185547L40.0185547,35l9.1318359-9.1308594
	c1.3828125-1.3837891,1.3828125-3.6357422,0-5.0195312c-1.3847656-1.3828125-3.6347656-1.3828125-5.0195312,0L35,29.9814453
	l-9.1308594-9.1318359c-1.3808594-1.3837891-3.6337891-1.3857422-5.0185547,0
	c-0.6708984,0.6708984-1.0400391,1.5615234-1.0400391,2.5097656s0.3691406,1.8388672,1.0400391,2.5097656L29.9814453,35
	l-9.1308594,9.1308594C20.1796875,44.8007812,19.8105469,45.6923828,19.8105469,46.640625z M22.2646484,45.5449219
	l9.8378906-9.8378906c0.390625-0.390625,0.390625-1.0234375,0-1.4140625l-9.8378906-9.8378906
	c-0.6044922-0.6044922-0.6044922-1.5869141,0-2.1914062c0.3017578-0.3017578,0.6982422-0.453125,1.0957031-0.453125
	c0.3964844,0,0.7929688,0.1513672,1.0947266,0.453125l9.8378906,9.8388672c0.375,0.375,1.0390625,0.375,1.4140625,0
	l9.8378906-9.8388672c0.6035156-0.6035156,1.5878906-0.6035156,2.1914062,0c0.6035156,0.6044922,0.6035156,1.5869141,0,2.1914062
	l-9.8388672,9.8378906c-0.1875,0.1875-0.2929688,0.4414062-0.2929688,0.7070312s0.1054688,0.5195312,0.2929688,0.7070312
	l9.8388672,9.8378906c0.6035156,0.6035156,0.6035156,1.5869141,0,2.1904297s-1.5878906,0.6035156-2.1914062,0l-9.8378906-9.8378906
	c-0.390625-0.390625-1.0234375-0.390625-1.4140625,0l-9.8378906,9.8378906c-0.5849609,0.5849609-1.6035156,0.5869141-2.1904297,0
	c-0.2929688-0.2929688-0.4541016-0.6816406-0.4541016-1.0947266C21.8105469,46.2265625,21.9716797,45.8378906,22.2646484,45.5449219
	z"></path></svg>