<svg xmlns="http://www.w3.org/2000/svg" width="2666.563" height="2666.563" fill-rule="evenodd" clip-rule="evenodd" image-rendering="optimizeQuality" shape-rendering="geometricPrecision" text-rendering="geometricPrecision" viewBox="0 0 27777 27777" id="cargo-barge"><path fill-rule="nonzero" d="M19792 8387l-6778 0 0 6167 6778 0 0 -6167zm-10202 4736l0 -7861c0,-421 342,-764 764,-764 422,0 764,342 764,764l0 7861 1340 0 0 -5013c0,-154 125,-278 278,-278l7333 0c154,0 278,124 278,278l0 5013 3486 0 0 1c36,0 73,7 108,22 141,60 207,222 147,363l-2546 6032c-35,112 -140,194 -264,194l-13222 0 0 -2c-89,0 -176,-42 -229,-121l-4097 -6034c-40,-48 -63,-110 -63,-177 0,-153 124,-278 277,-278l1026 0 1872 -4426c45,-106 147,-170 255,-170l0 -1 1945 0c153,0 277,125 277,278l0 4319 271 0zm972 0l0 -7861c0,-185 -224,-278 -355,-147 -38,38 -61,90 -61,147l0 7861 416 0zm-1798 0l0 -4041 -1484 0 -1709 4041 3193 0zm3694 556l-7991 0 3734 5500 12894 0 2321 -5500 -3069 0 0 1153c0,153 -124,278 -278,278l-7333 0c-153,0 -278,-125 -278,-278l0 -1153zm2139 -4292l3611 0c154,0 278,125 278,278l0 3611c0,154 -124,278 -278,278l-3611 0c-153,0 -278,-124 -278,-278l0 -3611c0,-153 125,-278 278,-278zm3334 556l-3056 0 0 3055 3056 0 0 -3055zm-11278 13212c-176,115 -382,147 -573,107 -411,-88 -674,-493 -587,-904 42,-195 167,-384 350,-493l2110 -1367c247,-160 563,-163 811,-11l0 -1c543,333 1137,554 1751,557 613,2 1195,-211 1735,-551 269,-169 615,-152 865,37l0 -1c723,545 1477,670 2348,404 316,-96 652,-247 1009,-454 129,-76 272,-108 412,-102 134,5 264,46 377,117 10,5 19,11 28,17 1171,813 2246,826 3414,3 248,-174 578,-183 834,-28l0 0 2062 1225c361,214 482,683 268,1044 -213,362 -683,483 -1044,269l-1666 -990c-1426,830 -2913,815 -4335,-13 -1400,700 -2852,812 -4199,12 -1394,720 -2833,703 -4227,-6l-1743 1129zm-458 -436c53,11 109,3 157,-28l1879 -1218 0 0c82,-53 191,-61 283,-11 947,516 1947,699 2990,417 328,-88 654,-220 976,-397 89,-59 208,-63 303,-2 1267,814 2609,670 3920,-22l0 1c84,-44 188,-44 274,9 944,584 1961,801 3025,475 334,-102 669,-257 1005,-467 85,-54 197,-60 290,-5l1808 1074c162,96 353,-54 308,-231 -13,-51 -46,-97 -96,-127l-2062 -1225 0 0c-75,-44 -160,-47 -233,5 -941,662 -1951,918 -3042,529 -348,-124 -659,-292 -1007,-529 -67,-46 -152,-51 -224,-10 -1342,780 -2693,977 -3968,14 -70,-52 -163,-56 -236,-10 -1379,869 -2712,826 -4069,-1 -68,-42 -153,-42 -222,3l-2129 1379c-153,101 -111,339 70,377z"></path></svg>