<svg xmlns="http://www.w3.org/2000/svg" viewBox="0 0 128 128" id="worker"><path d="M112 128a2 2 0 0 0 2-2V92a22.025 22.025 0 0 0-22-22h-6.868a32.144 32.144 0 0 1-5.662 4H84v15H44V74h4.53a32.143 32.143 0 0 1-5.662-4H36a22.025 22.025 0 0 0-22 22v34a2 2 0 0 0 4 0V92a18.02 18.02 0 0 1 14-17.537V89h-5a2 2 0 0 0 0 4h74a2 2 0 0 0 0-4h-5V74.463A18.02 18.02 0 0 1 110 92v34a2 2 0 0 0 2 2ZM40 89h-4V74h4Zm52 0h-4V74h4Z"></path><path d="M93.214 27.845A29.458 29.458 0 0 0 69.96 3.608 3.986 3.986 0 0 0 66 0h-4a3.986 3.986 0 0 0-3.96 3.608 29.458 29.458 0 0 0-23.254 24.237s-.78 5.453-.692 5.91a5.992 5.992 0 0 0 1.937 11.16c-.014.36-.031.72-.031 1.085a28 28 0 0 0 56 0c0-.364-.017-.725-.031-1.086a5.993 5.993 0 0 0 1.937-11.16c.088-.456-.692-5.91-.692-5.91zm-9.96-12.098a25.464 25.464 0 0 1 6.012 12.74L90 33H79.032a49.094 49.094 0 0 1 1.129-9.59l.694-2.545a19.045 19.045 0 0 1 2.4-5.118zM62 4h4v10h-4zm-4 3.73V14a4 4 0 0 0 4 4h4a4 4 0 0 0 4-4V7.73a25.602 25.602 0 0 1 10.342 5.19c-1.913 2.453-4.997 8.218-5.313 20.08H52.971c-.316-11.862-3.4-17.627-5.313-20.08A25.602 25.602 0 0 1 58 7.73zM38.734 28.488a25.465 25.465 0 0 1 6.012-12.74 19.095 19.095 0 0 1 2.404 5.136l.685 2.511A49.04 49.04 0 0 1 48.968 33H38zM64 70a24 24 0 0 1-24-24c0-.336.019-.668.033-1h47.934c.014.332.033.664.033 1a24 24 0 0 1-24 24zm27-29H37a2 2 0 0 1 0-4h54a2 2 0 0 1 0 4zm11 71a8.009 8.009 0 0 0-8-8H54.028a15.81 15.81 0 0 0-27.498.01A4 4 0 0 0 30 110h5v4h-5a4 4 0 0 0-3.47 5.99A15.908 15.908 0 0 0 40.277 128c.124 0 .247-.001.371-.004A15.975 15.975 0 0 0 53.985 120H94a8.009 8.009 0 0 0 8-8zm-8 4H51.451a12.017 12.017 0 0 1-10.895 7.997l-.279.003A11.845 11.845 0 0 1 30 118h7a2.007 2.007 0 0 0 2-2v-8a2.007 2.007 0 0 0-2-2h-7a11.822 11.822 0 0 1 21.476 2H94a4 4 0 0 1 0 8z"></path></svg>