<svg xmlns="http://www.w3.org/2000/svg" viewBox="0 0 64 64" id="worker"><path d="M13,37V29H41v1.79h2V29a4,4,0,0,0,1-7.87A14.89,14.89,0,0,0,31.67,7.25a5,5,0,0,0-9.34,0A15.05,15.05,0,0,0,10,21.13,4,4,0,0,0,11,29v8A16,16,0,0,0,27,53h1V51H27A14,14,0,0,1,13,37ZM22,9.35V15h2V9a3,3,0,0,1,6,0v6h2V9.35A12.91,12.91,0,0,1,41,17H34v2h7.65A13.22,13.22,0,0,1,42,21H12A13.07,13.07,0,0,1,22,9.35ZM9,25a2,2,0,0,1,2-2H43a2,2,0,0,1,0,4H11A2,2,0,0,1,9,25ZM55,42H51.66L54,39.64a1,1,0,0,0,0-1.42L49.78,34a1,1,0,0,0-1.42,0L46,36.34V33a1,1,0,0,0-1-1H39a1,1,0,0,0-1,1v3.34L35.64,34a1,1,0,0,0-1.42,0L30,38.22a1,1,0,0,0,0,1.42L32.34,42H29a1,1,0,0,0-1,1v6a1,1,0,0,0,1,1h3.34L30,52.36a1,1,0,0,0,0,1.42L34.22,58a1,1,0,0,0,1.42,0L38,55.66V59a1,1,0,0,0,1,1h6a1,1,0,0,0,1-1V55.66L48.36,58a1,1,0,0,0,1.42,0L54,53.78a1,1,0,0,0,0-1.42L51.66,50H55a1,1,0,0,0,1-1V43A1,1,0,0,0,55,42Zm-1,6H50.48a1,1,0,0,0-.95.67,7.35,7.35,0,0,1-.32.77,1,1,0,0,0,.2,1.14l2.49,2.49L49.07,55.9l-2.49-2.49a1,1,0,0,0-1.14-.2,7.35,7.35,0,0,1-.77.32,1,1,0,0,0-.67.95V58H40V54.48a1,1,0,0,0-.67-.95,7.35,7.35,0,0,1-.77-.32,1,1,0,0,0-1.14.2L34.93,55.9,32.1,53.07l2.49-2.49a1,1,0,0,0,.2-1.14,7.35,7.35,0,0,1-.32-.77,1,1,0,0,0-.95-.67H30V44h3.52a1,1,0,0,0,.95-.67,7.35,7.35,0,0,1,.32-.77,1,1,0,0,0-.2-1.14L32.1,38.93l2.83-2.83,2.49,2.49a1,1,0,0,0,1.14.2,7.35,7.35,0,0,1,.77-.32,1,1,0,0,0,.67-.95V34h4v3.52a1,1,0,0,0,.67.95,7.35,7.35,0,0,1,.77.32,1,1,0,0,0,1.14-.2l2.49-2.49,2.83,2.83-2.49,2.49a1,1,0,0,0-.2,1.14,7.35,7.35,0,0,1,.32.77,1,1,0,0,0,.95.67H54ZM42,40a6,6,0,1,0,6,6A6,6,0,0,0,42,40Zm0,10a4,4,0,1,1,4-4A4,4,0,0,1,42,50ZM30,17h2v2H30Z"></path></svg>